PathFileType	4	(X/Y/Z)	s10c0202.trc
DataRate	CameraRate	NumFrames	NumMarkers	Units	OrigDataRate	OrigDataStartFrame	OrigNumFrames
200	200	4	50	mm	200	1750	2000
Frame#	Time	racr			lacr			c7			jug			rlel			rdr			llel			ldr			s2			lic			ric			lasi			rasi			rpsi			lpsi			rgt			lgt			rth1			rth2			rth3			rth4			rlfc			rmfc			rsh1			rsh2			rsh3			rsh4			rlmal			rmmal			rcal			rtoe			rmt5			lth1			lth2			lth4			lth3			llfc			lmfc			llmal			lmmal			lcal			lmt5			lsh1			lsh2			lsh3			lsh4			ltoe			SBIKE			LBIKE			RBIKE			
		X1	Y1	Z1	X2	Y2	Z2	X3	Y3	Z3	X4	Y4	Z4	X5	Y5	Z5	X6	Y6	Z6	X7	Y7	Z7	X8	Y8	Z8	X9	Y9	Z9	X10	Y10	Z10	X11	Y11	Z11	X12	Y12	Z12	X13	Y13	Z13	X14	Y14	Z14	X15	Y15	Z15	X16	Y16	Z16	X17	Y17	Z17	X18	Y18	Z18	X19	Y19	Z19	X20	Y20	Z20	X21	Y21	Z21	X22	Y22	Z22	X23	Y23	Z23	X24	Y24	Z24	X25	Y25	Z25	X26	Y26	Z26	X27	Y27	Z27	X28	Y28	Z28	X29	Y29	Z29	X30	Y30	Z30	X31	Y31	Z31	X32	Y32	Z32	X33	Y33	Z33	X34	Y34	Z34	X35	Y35	Z35	X36	Y36	Z36	X37	Y37	Z37	X38	Y38	Z38	X39	Y39	Z39	X40	Y40	Z40	X41	Y41	Z41	X42	Y42	Z42	X43	Y43	Z43	X44	Y44	Z44	X45	Y45	Z45	X46	Y46	Z46	X47	Y47	Z47	X48	Y48	Z48	X49	Y49	Z49	X50	Y50	Z50	
1750	8.7500	443.002188	1264.574303	-123.587858	416.780166	1316.194124	-384.192477	389.562163	1321.501404	-252.229318	376.226718	1174.832381	-267.311323	444.957738	1041.514138	25.601067	605.905236	911.362322	-36.905104	447.946580	1059.582693	-499.937035	608.935016	908.052353	-433.764527	-115.370423	1107.523551	-206.212502	22.589803	1145.312245	-365.671994	73.397839	1117.688266	-82.623180	66.282970	1052.320070	-346.501203	73.712281	1042.842160	-88.365348	-79.584137	1168.281939	-144.574307	-77.125866	1176.922047	-255.750274	-39.054459	1012.724108	-24.881361	-45.562594	1005.375694	-402.057955	45.322077	886.097385	0.801510	119.858973	838.691281	-11.164997	158.229321	762.730401	-19.326934	145.644353	865.013389	-16.156128	224.945485	674.508917	-37.126026	219.103164	674.283976	-154.802268	134.602984	599.403198	-13.634015	95.097727	522.127818	-33.864320	23.958889	474.231537	-41.603460	119.704979	506.945377	-59.692320	-48.821658	400.842410	-63.199853	-12.991011	400.473349	-139.860433	-99.437406	409.991594	-111.981213	87.713022	255.519548	-98.737431	2.974256	282.049411	-40.100879	67.232937	929.996104	-417.474515	152.220727	916.713920	-405.091219	165.346137	948.004925	-391.006205	221.874032	861.101533	-405.394531	326.381165	802.691055	-383.862150	336.679540	787.136087	-266.957278	201.744092	438.808232	-384.033320	218.719442	443.739289	-303.554489	148.219757	401.892729	-341.443766	320.434104	358.130076	-406.992056	266.777440	691.940173	-412.344320	271.969152	604.196617	-403.006577	229.846378	526.181617	-399.938997	300.836150	600.078470	-378.301733	401.405575	394.366219	-351.399560	-217.826808	832.184174	-213.688548	-103.957681	80.459293	-418.259494	-103.751372	80.418314	-18.089244	
1751	8.7550	441.999879	1265.538109	-123.014743	417.455827	1316.360817	-383.736117	389.278633	1321.740573	-251.388548	376.725043	1174.965628	-266.340514	444.854197	1041.673566	25.602322	605.739733	911.424924	-36.990656	448.570887	1060.098796	-499.624267	608.937911	907.909061	-433.936369	-116.927381	1104.910503	-204.279365	22.150126	1143.855174	-367.383964	73.475975	1117.726336	-83.102602	66.551587	1051.193938	-347.104741	74.019799	1042.793839	-89.110016	-79.091317	1165.451172	-143.967448	-77.506016	1175.753435	-255.602658	-37.089858	1012.669037	-24.531402	-47.381841	1002.139886	-400.921537	50.169217	888.100660	0.715709	125.135439	841.724581	-12.536671	164.547576	766.260431	-20.769072	150.386017	868.390229	-18.425391	231.984092	678.350590	-39.557053	221.868334	677.952978	-157.075820	140.900637	605.225373	-14.730388	99.206937	529.206578	-34.903582	26.709275	483.129765	-41.819620	123.682131	514.475662	-60.873873	-48.809895	412.072105	-62.867216	-13.707508	411.203077	-140.001473	-99.550017	421.929170	-111.403219	85.548503	264.847086	-98.952082	1.335461	292.531262	-40.078114	65.541954	924.095734	-417.447996	150.132393	908.329602	-405.815824	164.405676	939.530651	-392.636459	218.073804	850.620934	-405.950303	321.211811	788.573108	-385.214564	332.986177	773.214812	-269.963774	203.270960	425.670850	-384.534599	220.793427	431.461061	-302.911909	150.154864	388.395185	-341.024061	322.322302	347.024190	-406.998706	263.495552	676.498108	-413.249095	270.418128	589.067399	-402.672478	229.999856	509.691505	-400.087000	298.870702	585.846167	-377.373929	402.799811	384.593632	-351.499607	-217.819788	832.160871	-213.506557	-103.970053	80.441585	-418.284333	-103.789184	80.402884	-18.122352	
1752	8.7600	441.006645	1266.523368	-121.977771	417.976821	1316.104167	-382.569294	389.151549	1322.170636	-250.397758	376.187127	1175.351650	-264.787790	444.708157	1041.839011	25.654945	605.581986	911.467543	-37.064329	449.133091	1060.490166	-499.343630	608.883066	907.761165	-434.037607	-117.253741	1103.675325	-203.274796	21.503643	1141.874422	-368.898469	73.501671	1117.765387	-83.778177	66.910436	1050.044204	-347.761616	74.351768	1042.565492	-89.924994	-77.366014	1164.271345	-144.605222	-77.947488	1174.260207	-255.544300	-35.056029	1012.492104	-24.212590	-49.354473	998.584370	-399.668055	54.950664	889.889405	0.395411	130.480517	844.510849	-14.133032	170.853993	769.670104	-22.368084	155.207089	871.711467	-21.227997	239.067616	682.278969	-42.075107	224.570653	681.995298	-159.202666	147.383364	611.454280	-15.809228	103.623460	536.527968	-35.937969	30.096775	492.039814	-41.923438	126.984130	521.387989	-62.720152	-48.016515	423.410867	-62.447007	-14.093650	421.965999	-140.095962	-98.893342	433.962317	-110.848539	84.054270	274.351683	-99.133654	0.341809	303.111262	-40.024269	64.520752	918.254198	-418.035158	148.051685	899.788643	-406.488832	163.399701	930.888458	-394.665463	214.150510	840.175803	-406.227564	315.757390	774.356600	-386.345972	328.035880	760.562236	-272.627582	204.150686	413.086068	-384.664354	221.279406	418.860322	-302.882557	151.254260	375.897996	-341.131775	323.509061	335.946721	-407.072713	259.822205	662.131745	-413.575148	268.978157	575.203990	-401.884171	230.782502	494.902996	-399.562168	296.984780	573.299549	-376.263215	403.644133	374.641498	-351.564115	-217.829382	832.155508	-213.523900	-103.970476	80.458660	-418.296407	-103.825788	80.424440	-18.156078	
1753	8.7650	439.761926	1267.639451	-120.833563	418.713484	1316.217945	-382.487383	388.796295	1322.401964	-249.408209	376.683818	1175.448332	-263.403976	444.418196	1041.951256	25.793456	605.445131	911.505305	-37.149317	449.711785	1060.775398	-499.160783	608.795897	907.621425	-434.126493	-117.635428	1102.050266	-202.384921	20.852782	1139.637073	-370.256409	73.372335	1117.583139	-84.330525	67.435484	1048.888730	-348.537934	74.777640	1042.171244	-90.781605	-75.806895	1162.751738	-145.380708	-78.373458	1172.465881	-255.707140	-32.868159	1011.885885	-23.961479	-50.900527	994.419673	-398.865966	59.700683	891.542459	-0.125379	135.759179	847.247597	-15.636963	177.126890	773.067938	-24.045312	159.866677	874.971033	-23.624334	246.364712	686.449189	-44.567336	227.580743	685.677582	-161.306352	153.944482	617.787474	-16.954034	108.364821	543.939455	-36.890379	33.738092	501.180681	-42.072171	130.442127	528.240654	-64.220648	-46.354413	434.550253	-61.998243	-14.894762	432.067220	-139.742067	-97.303528	446.034321	-110.182359	83.195421	283.656223	-99.438406	0.163185	313.644534	-39.923143	62.859019	911.844092	-417.841337	145.969794	891.110766	-407.108145	162.435290	922.063784	-396.314509	210.252339	829.524129	-406.129411	310.020844	760.464051	-387.383768	321.636707	750.741412	-273.366347	204.109874	400.825726	-384.623645	221.293216	406.848958	-303.034460	151.495479	363.151239	-340.862400	324.090824	324.933255	-406.887715	255.420638	650.937791	-413.747713	267.035324	564.456778	-401.949699	230.865903	483.153185	-398.502932	295.195756	563.559685	-376.518646	403.855154	364.350372	-351.461574	-217.854811	832.136071	-213.572348	-103.961315	80.448291	-418.291830	-103.844691	80.429293	-18.190272	
